<svg version="1.1" id="Layer_1" xmlns="http://www.w3.org/2000/svg" xmlns:xlink="http://www.w3.org/1999/xlink" x="0px" y="0px"
	 width="100%" viewBox="0 0 200 200" enable-background="new 0 0 200 200" xml:space="preserve">
<path fill="#000000" opacity="1.000000" stroke="none" 
	d="
M143.000000,201.000000 
	C95.333336,201.000000 48.166672,201.000000 1.000006,201.000000 
	C1.000004,134.333344 1.000004,67.666679 1.000002,1.000015 
	C67.666656,1.000010 134.333313,1.000010 200.999969,1.000005 
	C200.999985,67.666649 200.999985,134.333298 201.000000,200.999969 
	C181.833328,201.000000 162.666672,201.000000 143.000000,201.000000 
M130.927170,56.483143 
	C130.626572,56.377625 130.325958,56.272106 129.123917,56.028095 
	C118.519592,55.166904 110.105316,59.582169 102.321617,67.167183 
	C101.513733,67.834572 100.705856,68.501961 99.205452,69.036392 
	C98.183281,68.236000 97.183243,67.405304 96.135529,66.639870 
	C85.140015,58.606876 77.108398,56.234116 66.043678,62.981407 
	C63.960510,64.251724 62.021156,65.757881 59.377277,67.016098 
	C58.944504,66.970833 58.511730,66.925568 57.651073,66.230736 
	C55.928753,65.820229 54.216663,65.110435 52.482338,65.051155 
	C45.084396,64.798279 36.543304,72.383041 32.828838,82.658058 
	C28.959080,89.290688 28.936617,96.630798 28.460218,104.101624 
	C28.175570,104.278168 28.007858,104.531982 27.319283,105.128387 
	C26.201889,106.470901 24.900106,107.702332 24.009134,109.181259 
	C22.574181,111.563126 19.428131,113.585464 21.978483,117.800278 
	C25.295265,128.653076 33.252193,135.726028 42.058914,141.943359 
	C51.192303,148.391327 55.579449,147.654572 63.600945,138.888641 
	C64.084793,138.287766 64.568642,137.686874 65.904518,137.017151 
	C67.676041,136.801208 69.484024,136.743195 71.213219,136.343964 
	C83.360207,133.539520 93.218353,126.941826 101.982834,118.413834 
	C103.299416,119.319542 104.615997,120.225250 106.232368,121.755394 
	C114.152412,125.781441 122.072464,129.807480 130.846054,133.971680 
	C132.859604,133.996719 134.873138,134.021759 137.125916,134.594147 
	C137.730728,135.094986 138.335541,135.595825 139.211441,136.708160 
	C140.961441,138.453262 142.652603,140.262863 144.476471,141.926987 
	C146.718018,143.972229 149.188843,144.886475 152.699432,142.954849 
	C161.941483,139.963135 168.696304,133.272766 174.131790,125.988960 
	C182.138901,115.259064 184.165131,111.247070 173.884552,102.432053 
	C173.683044,102.134636 173.403244,101.971275 172.999405,101.031158 
	C172.999481,99.219101 173.140976,97.394089 172.976349,95.597122 
	C172.011688,85.068008 169.295761,75.271049 160.730484,67.257668 
	C155.382187,63.219242 149.931763,59.762665 142.428940,64.033714 
	C141.976318,63.983875 141.523682,63.934040 140.975327,63.184029 
	C137.664810,61.093529 134.354294,59.003025 131.031036,56.977287 
	C131.031036,56.977287 131.097031,56.976013 130.927170,56.483143 
z"/>
<path fill="#E43B2E" opacity="1.000000" stroke="none" 
	d="
M60.015442,67.155212 
	C62.021156,65.757881 63.960510,64.251724 66.043678,62.981407 
	C77.108398,56.234116 85.140015,58.606876 96.135529,66.639870 
	C97.183243,67.405304 98.183281,68.236000 99.557755,69.460854 
	C100.849434,71.384201 101.690895,72.956154 102.745430,74.369102 
	C106.921936,79.965126 110.835579,85.660797 110.842361,93.107513 
	C107.192001,97.101517 104.214348,101.358810 100.477325,104.788742 
	C80.406967,123.209885 45.237095,113.717842 35.843830,87.110275 
	C35.209755,85.314178 34.076038,83.694466 33.174702,81.992722 
	C36.543304,72.383041 45.084396,64.798279 52.482338,65.051155 
	C54.216663,65.110435 55.928753,65.820229 57.654343,66.831604 
	C53.334324,70.662392 47.229809,72.346191 46.818836,78.972023 
	C47.324364,79.440575 47.829891,79.909119 48.335423,80.377670 
	C52.228764,75.970184 56.122101,71.562706 60.015442,67.155212 
M86.010490,77.466530 
	C89.227417,80.820869 92.304184,84.328430 95.726112,87.458672 
	C97.220657,88.825813 99.421875,89.420448 101.302170,90.365898 
	C101.709595,88.077461 103.239120,85.079384 102.321739,83.628784 
	C99.097748,78.530914 95.477264,73.495811 91.123604,69.369156 
	C88.408302,66.795418 84.197845,65.601921 80.459610,64.415054 
	C79.208488,64.017838 77.342216,65.558174 75.757133,66.212845 
	C76.407234,67.733101 76.692665,69.623383 77.782494,70.697456 
	C80.133652,73.014641 82.897942,74.912643 86.010490,77.466530 
z"/>
<path fill="#DA382C" opacity="1.000000" stroke="none" 
	d="
M33.001770,82.325394 
	C34.076038,83.694466 35.209755,85.314178 35.843830,87.110275 
	C45.237095,113.717842 80.406967,123.209885 100.477325,104.788742 
	C104.214348,101.358810 107.192001,97.101517 111.016014,93.422577 
	C112.114868,100.887108 108.786194,106.749031 104.854416,112.421608 
	C103.648842,114.160957 102.644905,116.040070 101.548630,117.855179 
	C93.218353,126.941826 83.360207,133.539520 71.213219,136.343964 
	C69.484024,136.743195 67.676041,136.801208 65.214340,136.812759 
	C63.811157,136.187012 63.143017,135.643814 62.378517,135.362335 
	C47.956264,130.052567 37.182430,120.849770 31.196531,106.428932 
	C30.794292,105.459885 29.688398,104.782913 28.909773,103.970100 
	C28.936617,96.630798 28.959080,89.290688 33.001770,82.325394 
z"/>
<path fill="#3C8DD6" opacity="1.000000" stroke="none" 
	d="
M143.102264,64.163734 
	C149.931763,59.762665 155.382187,63.219242 160.910004,67.947388 
	C168.245422,82.475258 167.265030,95.832870 158.947693,108.893440 
	C158.045212,110.310608 158.216064,112.411285 157.563080,114.106903 
	C156.797684,113.922882 156.358246,113.826889 155.821472,113.455734 
	C155.399918,112.700363 155.075684,112.220161 154.814270,111.401619 
	C153.472076,110.294380 152.067047,109.525490 150.182968,108.494431 
	C150.182968,107.637680 150.182968,105.975693 150.182968,103.681152 
	C146.467270,107.114929 143.272705,110.067108 139.880310,112.742340 
	C137.761475,109.291000 139.178864,107.279282 141.490692,104.789276 
	C144.442444,101.610016 146.548889,97.645935 149.224976,93.756836 
	C151.602280,90.017235 153.774292,86.540909 155.926254,82.686676 
	C154.637039,80.641357 153.367859,78.973938 152.098663,77.306519 
	C150.813568,78.785706 149.408386,80.178513 148.269119,81.762589 
	C146.097275,84.782364 144.077148,87.911263 141.639404,90.945923 
	C136.557907,88.197884 134.793854,84.446022 136.663086,78.940620 
	C138.384476,73.870689 140.923447,69.078354 143.102264,64.163734 
M138.422653,83.919365 
	C139.900482,84.293724 142.582230,85.175613 142.671234,84.964485 
	C143.637802,82.671761 144.384186,80.234818 144.743576,77.771973 
	C144.839066,77.117676 143.405930,76.240311 142.674667,75.465370 
	C141.318893,76.906921 139.776718,78.222748 138.684418,79.842010 
	C138.121460,80.676559 138.358887,82.051018 138.422653,83.919365 
z"/>
<path fill="#3C8DD6" opacity="1.000000" stroke="none" 
	d="
M102.900848,66.912224 
	C110.105316,59.582169 118.519592,55.166904 129.739532,56.249531 
	C130.580612,56.671398 130.827896,56.839745 131.097031,56.976013 
	C131.097031,56.976013 131.031036,56.977287 131.064804,57.322319 
	C132.435410,62.140076 133.772232,66.612801 135.098785,71.496780 
	C134.361145,76.590477 133.633804,81.272926 132.611023,86.098801 
	C131.379608,87.383675 130.611389,88.739059 129.477539,89.628120 
	C125.397568,92.827194 121.194237,95.868904 117.037903,98.508858 
	C116.344170,92.148041 115.650055,86.248444 115.126923,80.031052 
	C119.148048,76.384132 123.210999,73.261841 126.745338,69.625748 
	C128.192612,68.136795 128.497543,65.537453 129.322128,63.443245 
	C127.026970,63.245159 124.241417,62.119801 122.529770,63.025036 
	C117.641075,65.610504 113.188889,69.021347 108.272316,71.985664 
	C106.286697,70.213280 104.593773,68.562752 102.900848,66.912224 
z"/>
<path fill="#3C8DD6" opacity="1.000000" stroke="none" 
	d="
M129.992508,133.833527 
	C122.072464,129.807480 114.152412,125.781441 106.173363,121.070557 
	C107.722137,117.222954 109.329918,114.060188 111.267532,111.077408 
	C119.479919,115.825310 127.253578,114.234467 134.176376,110.664856 
	C136.372482,112.418961 137.978485,113.701714 139.899902,115.164108 
	C141.746948,115.343735 143.278534,115.343735 144.452438,115.343735 
	C145.112503,117.275246 145.615372,118.746773 145.997498,120.594017 
	C143.987213,123.109726 142.358749,125.584732 140.145645,127.309563 
	C136.985764,129.772278 133.397705,131.685577 129.992508,133.833527 
z"/>
<path fill="#1B74C7" opacity="1.000000" stroke="none" 
	d="
M110.937698,110.897430 
	C109.329918,114.060188 107.722137,117.222954 106.023468,120.758339 
	C104.615997,120.225250 103.299416,119.319542 101.765732,118.134506 
	C102.644905,116.040070 103.648842,114.160957 104.854416,112.421608 
	C108.786194,106.749031 112.114868,100.887108 111.338272,93.304039 
	C110.835579,85.660797 106.921936,79.965126 102.745430,74.369102 
	C101.690895,72.956154 100.849434,71.384201 99.904022,69.527336 
	C100.705856,68.501961 101.513733,67.834572 102.611237,67.039703 
	C104.593773,68.562752 106.286697,70.213280 108.427277,72.307274 
	C110.901932,75.283447 112.928932,77.816147 114.955940,80.348846 
	C115.650055,86.248444 116.344170,92.148041 116.954224,98.852699 
	C115.681396,103.886246 117.803322,104.910728 120.868904,102.871223 
	C124.815292,100.245712 128.147476,96.711769 131.844788,93.692276 
	C134.684219,91.373367 135.054199,88.877914 132.906464,85.955368 
	C133.633804,81.272926 134.361145,76.590477 135.408966,71.378998 
	C137.509979,68.528038 139.290527,66.206123 141.071060,63.884209 
	C141.523682,63.934040 141.976318,63.983875 142.765594,64.098724 
	C140.923447,69.078354 138.384476,73.870689 136.663086,78.940620 
	C134.793854,84.446022 136.557907,88.197884 141.932343,91.122513 
	C145.369781,90.079048 148.287582,89.025284 150.906570,87.468750 
	C152.792740,86.347748 154.280701,84.556740 155.946289,83.064583 
	C153.774292,86.540909 151.602280,90.017235 148.827362,93.787842 
	C145.934204,94.219734 143.323975,95.125809 141.420914,94.333466 
	C137.573074,92.731400 135.215179,93.978851 132.746017,96.727379 
	C127.688942,102.356583 122.244987,107.395515 114.104561,108.194115 
	C112.971451,108.305283 111.989586,109.958206 110.937698,110.897430 
z"/>
<path fill="#2A83D4" opacity="1.000000" stroke="none" 
	d="
M157.889053,114.194923 
	C158.216064,112.411285 158.045212,110.310608 158.947693,108.893440 
	C167.265030,95.832870 168.245422,82.475258 161.058685,68.258865 
	C169.295761,75.271049 172.011688,85.068008 172.976349,95.597122 
	C173.140976,97.394089 172.999481,99.219101 172.704529,101.624222 
	C168.615784,107.428856 164.821899,112.640442 160.642426,117.875755 
	C159.467560,116.664635 158.678299,115.429779 157.889053,114.194923 
z"/>
<path fill="#E43B2E" opacity="1.000000" stroke="none" 
	d="
M21.885727,117.047058 
	C19.428131,113.585464 22.574181,111.563126 24.009134,109.181259 
	C24.900106,107.702332 26.201889,106.470901 27.727589,105.363373 
	C31.568350,111.386101 34.355011,117.715317 38.621445,122.803833 
	C42.600235,127.549263 48.152157,130.975708 52.668221,135.174011 
	C50.360580,135.503571 48.299751,136.096207 46.448547,135.702682 
	C37.729557,133.849304 31.035591,129.026932 26.242725,121.448067 
	C25.165121,119.744080 23.357361,118.501854 21.885727,117.047058 
z"/>
<path fill="#2A83D4" opacity="1.000000" stroke="none" 
	d="
M174.045013,102.904999 
	C184.165131,111.247070 182.138901,115.259064 174.131790,125.988960 
	C168.696304,133.272766 161.941483,139.963135 152.446045,142.577789 
	C153.920868,140.710358 155.571564,139.116974 157.390961,137.747787 
	C164.610840,132.314484 168.893723,123.159172 167.180191,116.713127 
	C169.587280,111.917450 171.816147,107.411224 174.045013,102.904999 
z"/>
<path fill="#DB382B" opacity="1.000000" stroke="none" 
	d="
M21.932106,117.423668 
	C23.357361,118.501854 25.165121,119.744080 26.242725,121.448067 
	C31.035591,129.026932 37.729557,133.849304 46.448547,135.702682 
	C48.299751,136.096207 50.360580,135.503571 53.022545,135.261642 
	C56.835102,136.480026 59.949944,137.802063 63.064781,139.124084 
	C55.579449,147.654572 51.192303,148.391327 42.058914,141.943359 
	C33.252193,135.726028 25.295265,128.653076 21.932106,117.423668 
z"/>
<path fill="#3B8CD6" opacity="1.000000" stroke="none" 
	d="
M167.001984,117.002586 
	C168.893723,123.159172 164.610840,132.314484 157.390961,137.747787 
	C155.571564,139.116974 153.920868,140.710358 152.079941,142.512482 
	C149.188843,144.886475 146.718018,143.972229 144.476471,141.926987 
	C142.652603,140.262863 140.961441,138.453262 139.380188,136.200180 
	C144.737534,132.697632 149.926132,129.703049 155.249268,126.577820 
	C155.721832,126.294395 156.059830,126.141640 156.754486,125.871918 
	C158.726974,124.142059 160.342834,122.529144 161.908325,120.966644 
	C161.857941,121.017052 161.746704,120.927971 162.086258,120.879318 
	C163.951202,119.554642 165.476593,118.278610 167.001984,117.002586 
z"/>
<path fill="#CA3B2E" opacity="1.000000" stroke="none" 
	d="
M63.332863,139.006378 
	C59.949944,137.802063 56.835102,136.480026 53.365936,135.070374 
	C48.152157,130.975708 42.600235,127.549263 38.621445,122.803833 
	C34.355011,117.715317 31.568350,111.386101 28.046490,105.230705 
	C28.007858,104.531982 28.175570,104.278168 28.684996,104.035858 
	C29.688398,104.782913 30.794292,105.459885 31.196531,106.428932 
	C37.182430,120.849770 47.956264,130.052567 62.378517,135.362335 
	C63.143017,135.643814 63.811157,136.187012 64.788322,136.847183 
	C64.568642,137.686874 64.084793,138.287766 63.332863,139.006378 
z"/>
<path fill="#2A83D4" opacity="1.000000" stroke="none" 
	d="
M130.419281,133.902603 
	C133.397705,131.685577 136.985764,129.772278 140.145645,127.309563 
	C142.358749,125.584732 143.987213,123.109726 146.216583,120.625473 
	C146.556412,120.281212 146.941696,120.498940 147.099854,120.840286 
	C148.030762,121.705086 148.803497,122.228554 149.818298,122.832726 
	C150.721817,123.055946 151.383286,123.198456 151.923355,123.700317 
	C149.950104,125.997070 148.370682,128.358780 146.178558,129.766205 
	C143.336639,131.590820 140.006592,132.655167 136.886688,134.046814 
	C134.873138,134.021759 132.859604,133.996719 130.419281,133.902603 
z"/>
<path fill="#2A83D4" opacity="1.000000" stroke="none" 
	d="
M141.023193,63.534119 
	C139.290527,66.206123 137.509979,68.528038 135.419250,70.967743 
	C133.772232,66.612801 132.435410,62.140076 131.071167,57.289940 
	C134.354294,59.003025 137.664810,61.093529 141.023193,63.534119 
z"/>
<path fill="#1A77CB" opacity="1.000000" stroke="none" 
	d="
M167.180191,116.713127 
	C165.476593,118.278610 163.951202,119.554642 162.072113,120.548050 
	C161.488281,119.460960 161.258163,118.656487 161.028030,117.852020 
	C164.821899,112.640442 168.615784,107.428856 172.727417,102.079620 
	C173.403244,101.971275 173.683044,102.134636 173.964783,102.668526 
	C171.816147,107.411224 169.587280,111.917450 167.180191,116.713127 
z"/>
<path fill="#CA3B2E" opacity="1.000000" stroke="none" 
	d="
M59.696358,67.085663 
	C56.122101,71.562706 52.228764,75.970184 48.335423,80.377670 
	C47.829891,79.909119 47.324364,79.440575 46.818836,78.972023 
	C47.229809,72.346191 53.334324,70.662392 57.868286,67.156387 
	C58.511730,66.925568 58.944504,66.970833 59.696358,67.085663 
z"/>
<path fill="#1A77CB" opacity="1.000000" stroke="none" 
	d="
M137.006302,134.320480 
	C140.006592,132.655167 143.336639,131.590820 146.178558,129.766205 
	C148.370682,128.358780 149.950104,125.997070 152.256470,123.813148 
	C153.512222,124.613914 154.313461,125.661194 155.114716,126.708481 
	C149.926132,129.703049 144.737534,132.697632 139.244659,135.894440 
	C138.335541,135.595825 137.730728,135.094986 137.006302,134.320480 
z"/>
<path fill="#2A83D4" opacity="1.000000" stroke="none" 
	d="
M131.012100,56.729576 
	C130.827896,56.839745 130.580612,56.671398 130.190262,56.318779 
	C130.325958,56.272106 130.626572,56.377625 131.012100,56.729576 
z"/>
<path fill="#E85A4F" opacity="1.000000" stroke="none" 
	d="
M85.751839,77.224342 
	C82.897942,74.912643 80.133652,73.014641 77.782494,70.697456 
	C76.692665,69.623383 76.407234,67.733101 75.757133,66.212845 
	C77.342216,65.558174 79.208488,64.017838 80.459610,64.415054 
	C84.197845,65.601921 88.408302,66.795418 91.123604,69.369156 
	C95.477264,73.495811 99.097748,78.530914 102.321739,83.628784 
	C103.239120,85.079384 101.709595,88.077461 101.302170,90.365898 
	C99.421875,89.420448 97.220657,88.825813 95.726112,87.458672 
	C92.304184,84.328430 89.227417,80.820869 85.751839,77.224342 
z"/>
<path fill="#2A83D4" opacity="1.000000" stroke="none" 
	d="
M111.267532,111.077408 
	C111.989586,109.958206 112.971451,108.305283 114.104561,108.194115 
	C122.244987,107.395515 127.688942,102.356583 132.746017,96.727379 
	C135.215179,93.978851 137.573074,92.731400 141.420914,94.333466 
	C143.323975,95.125809 145.934204,94.219734 148.622070,94.051117 
	C146.548889,97.645935 144.442444,101.610016 141.490692,104.789276 
	C139.178864,107.279282 137.761475,109.291000 139.793213,113.068680 
	C139.797455,114.109467 139.690964,114.546967 139.584473,114.984474 
	C137.978485,113.701714 136.372482,112.418961 134.176376,110.664856 
	C127.253578,114.234467 119.479919,115.825310 111.267532,111.077408 
z"/>
<path fill="#9CCEF2" opacity="1.000000" stroke="none" 
	d="
M139.899902,115.164108 
	C139.690964,114.546967 139.797455,114.109467 139.991058,113.345627 
	C143.272705,110.067108 146.467270,107.114929 150.182968,103.681152 
	C150.182968,105.975693 150.182968,107.637680 150.182968,108.494431 
	C152.067047,109.525490 153.472076,110.294380 154.451187,111.483315 
	C148.531662,112.193794 148.067810,116.602371 146.990479,120.517166 
	C146.996979,120.530983 146.941696,120.498940 146.941696,120.498940 
	C146.941696,120.498940 146.556412,120.281212 146.337326,120.249756 
	C145.615372,118.746773 145.112503,117.275246 144.452438,115.343735 
	C143.278534,115.343735 141.746948,115.343735 139.899902,115.164108 
z"/>
<path fill="#2A83D4" opacity="1.000000" stroke="none" 
	d="
M155.926254,82.686676 
	C154.280701,84.556740 152.792740,86.347748 150.906570,87.468750 
	C148.287582,89.025284 145.369781,90.079048 142.286972,91.171463 
	C144.077148,87.911263 146.097275,84.782364 148.269119,81.762589 
	C149.408386,80.178513 150.813568,78.785706 152.098663,77.306519 
	C153.367859,78.973938 154.637039,80.641357 155.926254,82.686676 
z"/>
<path fill="#9CCEF2" opacity="1.000000" stroke="none" 
	d="
M155.249268,126.577820 
	C154.313461,125.661194 153.512222,124.613914 152.377869,123.453796 
	C151.383286,123.198456 150.721817,123.055946 149.793869,122.575294 
	C149.465637,121.898323 149.403870,121.559486 149.637802,121.033630 
	C154.183578,120.371452 154.795502,116.836098 155.918808,113.730896 
	C156.358246,113.826889 156.797684,113.922882 157.563080,114.106903 
	C158.678299,115.429779 159.467560,116.664635 160.642426,117.875755 
	C161.258163,118.656487 161.488281,119.460960 161.732544,120.596695 
	C161.746704,120.927971 161.857941,121.017052 161.516449,120.917435 
	C157.796783,120.891747 156.530746,122.916924 156.397827,125.988876 
	C156.059830,126.141640 155.721832,126.294395 155.249268,126.577820 
z"/>
<path fill="#68ABE0" opacity="1.000000" stroke="none" 
	d="
M138.328659,83.550446 
	C138.358887,82.051018 138.121460,80.676559 138.684418,79.842010 
	C139.776718,78.222748 141.318893,76.906921 142.674652,75.465363 
	C143.405930,76.240311 144.839066,77.117676 144.743576,77.771973 
	C144.384186,80.234818 143.637802,82.671761 142.671234,84.964485 
	C142.582230,85.175613 139.900482,84.293724 138.328659,83.550446 
z"/>
<path fill="#1F7ACC" opacity="1.000000" stroke="none" 
	d="
M155.821472,113.455734 
	C154.795502,116.836098 154.183578,120.371452 149.047638,120.855850 
	C147.769180,120.744507 147.376587,120.623932 146.983994,120.503349 
	C148.067810,116.602371 148.531662,112.193794 154.388351,111.821655 
	C155.075684,112.220161 155.399918,112.700363 155.821472,113.455734 
z"/>
<path fill="#68ABE0" opacity="1.000000" stroke="none" 
	d="
M115.126923,80.031052 
	C112.928932,77.816147 110.901932,75.283447 108.719971,72.429131 
	C113.188889,69.021347 117.641075,65.610504 122.529770,63.025036 
	C124.241417,62.119801 127.026970,63.245159 129.322128,63.443245 
	C128.497543,65.537453 128.192612,68.136795 126.745338,69.625748 
	C123.210999,73.261841 119.148048,76.384132 115.126923,80.031052 
z"/>
<path fill="#2A83D4" opacity="1.000000" stroke="none" 
	d="
M132.611023,86.098801 
	C135.054199,88.877914 134.684219,91.373367 131.844788,93.692276 
	C128.147476,96.711769 124.815292,100.245712 120.868904,102.871223 
	C117.803322,104.910728 115.681396,103.886246 116.953842,99.313919 
	C121.194237,95.868904 125.397568,92.827194 129.477539,89.628120 
	C130.611389,88.739059 131.379608,87.383675 132.611023,86.098801 
z"/>
<path fill="#1A77CB" opacity="1.000000" stroke="none" 
	d="
M156.754486,125.871925 
	C156.530746,122.916924 157.796783,120.891747 161.566833,120.867020 
	C160.342834,122.529144 158.726974,124.142059 156.754486,125.871925 
z"/>
<path fill="#3C8DD6" opacity="1.000000" stroke="none" 
	d="
M146.990479,120.517166 
	C147.376587,120.623932 147.769180,120.744507 148.751938,121.042877 
	C149.403870,121.559486 149.465637,121.898323 149.551819,122.494583 
	C148.803497,122.228554 148.030762,121.705086 147.099854,120.840286 
	C146.941696,120.498940 146.996979,120.530983 146.990479,120.517166 
z"/>
</svg>